<svg width="50" height="51" viewBox="0 0 50 51" fill="none" xmlns="http://www.w3.org/2000/svg">
<rect width="50" height="51" rx="8" fill="#345994"/>
<path d="M16.14 8.38C16.2733 8.22 16.3867 8.12 16.48 8.08C16.5733 8.04 16.7067 8.01333 16.88 8H20.04C20.16 8 20.2533 8.04 20.32 8.12C20.3867 8.18667 20.42 8.28 20.42 8.4C20.42 8.49333 20.3867 8.57333 20.32 8.64L18.42 10.24C18.3 10.3333 18.1133 10.38 17.86 10.38H17.62H15.2C14.9867 10.38 14.88 10.2733 14.88 10.06C14.88 9.95333 14.9133 9.86667 14.98 9.8L16.14 8.38ZM19.22 20.9H22.84C22.9867 20.9 23.1133 20.9533 23.22 21.06C23.3267 21.1667 23.38 21.2933 23.38 21.44V24.46C23.38 24.6067 23.3267 24.7333 23.22 24.84C23.1133 24.9467 22.9867 25 22.84 25H10.16C10.0133 25 9.88667 24.9467 9.78 24.84C9.67333 24.7333 9.62 24.6067 9.62 24.46V21.44C9.62 21.2933 9.67333 21.1667 9.78 21.06C9.88667 20.9533 10.0133 20.9 10.16 20.9H13.82V15.1H10.16C10.0133 15.1 9.88667 15.0467 9.78 14.94C9.67333 14.8333 9.62 14.7067 9.62 14.56V11.54C9.62 11.3933 9.67333 11.2667 9.78 11.16C9.88667 11.0533 10.0133 11 10.16 11H22.84C22.9867 11 23.1133 11.0533 23.22 11.16C23.3267 11.2667 23.38 11.3933 23.38 11.54V14.56C23.38 14.7067 23.3267 14.8333 23.22 14.94C23.1133 15.0467 22.9867 15.1 22.84 15.1H19.22V20.9ZM41.4322 24.38C41.4589 24.4333 41.4722 24.4933 41.4722 24.56C41.4722 24.68 41.4255 24.7867 41.3322 24.88C41.2522 24.96 41.1522 25 41.0322 25H36.4922C36.3055 25 36.1322 24.9533 35.9722 24.86C35.8255 24.7667 35.7189 24.6467 35.6522 24.5L33.8922 20.54H32.2122V24.46C32.2122 24.6067 32.1589 24.7333 32.0522 24.84C31.9455 24.9467 31.8189 25 31.6722 25H27.3522C27.2055 25 27.0789 24.9467 26.9722 24.84C26.8655 24.7333 26.8122 24.6067 26.8122 24.46V11.54C26.8122 11.3933 26.8655 11.2667 26.9722 11.16C27.0789 11.0533 27.2055 11 27.3522 11H35.1322C36.3322 11 37.3789 11.1933 38.2722 11.58C39.1789 11.9667 39.8722 12.5267 40.3522 13.26C40.8322 13.9933 41.0722 14.8533 41.0722 15.84C41.0722 17.6533 40.3722 18.9667 38.9722 19.78L41.4322 24.38ZM34.7122 16.84C35.0055 16.84 35.2322 16.7467 35.3922 16.56C35.5522 16.36 35.6322 16.1133 35.6322 15.82C35.6322 15.5267 35.5522 15.2733 35.3922 15.06C35.2455 14.8333 35.0189 14.72 34.7122 14.72H32.2122V16.84H34.7122ZM19.22 35.9H22.84C22.9867 35.9 23.1133 35.9533 23.22 36.06C23.3267 36.1667 23.38 36.2933 23.38 36.44V39.46C23.38 39.6067 23.3267 39.7333 23.22 39.84C23.1133 39.9467 22.9867 40 22.84 40H10.16C10.0133 40 9.88667 39.9467 9.78 39.84C9.67333 39.7333 9.62 39.6067 9.62 39.46V36.44C9.62 36.2933 9.67333 36.1667 9.78 36.06C9.88667 35.9533 10.0133 35.9 10.16 35.9H13.82V30.1H10.16C10.0133 30.1 9.88667 30.0467 9.78 29.94C9.67333 29.8333 9.62 29.7067 9.62 29.56V26.54C9.62 26.3933 9.67333 26.2667 9.78 26.16C9.88667 26.0533 10.0133 26 10.16 26H22.84C22.9867 26 23.1133 26.0533 23.22 26.16C23.3267 26.2667 23.38 26.3933 23.38 26.54V29.56C23.38 29.7067 23.3267 29.8333 23.22 29.94C23.1133 30.0467 22.9867 30.1 22.84 30.1H19.22V35.9ZM34.5922 31.08C36.0589 31.24 37.2322 31.5 38.1122 31.86C39.0055 32.22 39.6522 32.6933 40.0522 33.28C40.4522 33.8667 40.6522 34.6 40.6522 35.48C40.6522 36.44 40.3389 37.28 39.7122 38C39.0989 38.7067 38.2455 39.2533 37.1522 39.64C36.0589 40.0133 34.8122 40.2 33.4122 40.2C31.8522 40.2 30.5322 40.0067 29.4522 39.62C28.3722 39.2333 27.5655 38.72 27.0322 38.08C26.4989 37.4267 26.2322 36.7133 26.2322 35.94C26.2322 35.8067 26.2722 35.7 26.3522 35.62C26.4455 35.54 26.5589 35.5 26.6922 35.5H30.7922C31.0722 35.5 31.2989 35.5867 31.4722 35.76C31.6989 35.9733 31.9522 36.12 32.2322 36.2C32.5122 36.2667 32.9055 36.3 33.4122 36.3C34.6789 36.3 35.3122 36.1067 35.3122 35.72C35.3122 35.56 35.2255 35.4267 35.0522 35.32C34.8922 35.2 34.5989 35.1 34.1722 35.02C33.7589 34.9267 33.1455 34.8333 32.3322 34.74C30.5055 34.5267 29.1055 34.0733 28.1322 33.38C27.1589 32.6733 26.6722 31.68 26.6722 30.4C26.6722 29.4933 26.9455 28.6933 27.4922 28C28.0389 27.3067 28.8122 26.7667 29.8122 26.38C30.8255 25.9933 31.9989 25.8 33.3322 25.8C34.7189 25.8 35.9322 26.02 36.9722 26.46C38.0122 26.8867 38.8055 27.42 39.3522 28.06C39.8989 28.7 40.1722 29.3267 40.1722 29.94C40.1722 30.0733 40.1255 30.18 40.0322 30.26C39.9522 30.34 39.8389 30.38 39.6922 30.38H35.3922C35.1655 30.38 34.9589 30.3 34.7722 30.14C34.6255 30.0067 34.4522 29.9 34.2522 29.82C34.0522 29.74 33.7455 29.7 33.3322 29.7C32.4389 29.7 31.9922 29.8867 31.9922 30.26C31.9922 30.46 32.1655 30.62 32.5122 30.74C32.8589 30.8467 33.5522 30.96 34.5922 31.08Z" fill="white"/>
</svg>
